<?xml version="1.0" encoding="utf-8"?>
<!-- Generator: Adobe Illustrator 19.0.0, SVG Export Plug-In . SVG Version: 6.00 Build 0)  -->
<svg version="1.1" id="Layer_1" xmlns="http://www.w3.org/2000/svg" xmlns:xlink="http://www.w3.org/1999/xlink" x="0px" y="0px"
	 viewBox="0 0 841.9 595.3" style="enable-background:new 0 0 841.9 595.3;" xml:space="preserve">
<style type="text/css">
	.st0{fill:#FFFFFF;}
	.st1{fill:#1E1E1E;}
	.st2{fill:#FFBE22;}
</style>
<rect id="XMLID_6_" class="st0" width="841.9" height="595.3"/>
<g id="XMLID_2_">
	<g id="XMLID_19_">
		<g id="XMLID_21_">
			<g id="XMLID_18_">
				<path id="XMLID_32_" class="st1" d="M369.8,243.1H400c4.3,0,7.8,1.6,10.4,4.8c2.7,3.2,3.6,6.8,2.6,11c-0.9,3.6-1.6,6.6-2.2,9
					c-0.6,2.4-1.1,4.6-1.6,6.7c-0.7,2.9-2.3,5.4-4.7,7.3c-2.4,1.9-5.2,2.9-8.4,2.9l-31.9-0.1c0,0,0,0,0,0c0,0,0,0,0,0
					c0,0.1-0.3,1-0.7,2.8c-0.4,1.8-0.9,3.9-1.5,6.3c-0.6,2.6-1.2,4.9-1.7,7c-0.5,2.1-0.8,3.4-0.9,3.8c-0.1,0-0.9,0-2.3,0
					c-1.4,0-3,0-4.9,0c-1.9,0-3.6,0-5.2,0c-1.6,0-2.6,0-3,0c2.4-9.7,4.3-17.8,5.9-24.2c1.6-6.4,3-12.2,4.3-17.5
					c1.3-5.2,2-8.4,2.3-9.6C359,246.4,363.4,243.1,369.8,243.1z M368.4,270.4h25.7c0.9,0,1.6-0.4,1.9-1.3l2.5-9.8
					c0.1-0.6,0-1.1-0.4-1.5c-0.4-0.4-0.8-0.6-1.4-0.6c-0.2,0-1.4,0-3.6,0c-2.2,0-4.7,0-7.7,0c-2.9,0-5.6,0-8.1,0c-2.4,0-3.9,0-4.5,0
					c-0.4,0-0.7,0.1-1.1,0.4c-0.4,0.3-0.6,0.6-0.7,1.1l-0.9,3.7C369.8,264.3,369.2,266.9,368.4,270.4z"/>
				<path id="XMLID_43_" class="st1" d="M437.9,284.6h-9.4v0v0c0,0.1-0.2,0.9-0.6,2.5c-0.4,1.8-0.9,4-1.5,6.5
					c-0.6,2.5-1.2,4.8-1.6,6.9c-0.5,2.1-0.8,3.3-0.9,3.8h-15.2l12.4-51.2c2.4-6.7,6.7-10.1,13-10.1h29.8c4.2,0,7.6,1.6,10.2,4.8
					c2.6,3.2,3.5,6.8,2.6,11c-0.9,3.6-1.6,6.6-2.2,9c-0.6,2.4-1.1,4.6-1.6,6.7c-0.8,2.9-2.3,5.4-4.7,7.3c-2.4,1.9-5.2,2.8-8.3,2.8
					h-5.6l11.8,19.9h-16.3L437.9,284.6z M462.3,259.2c0.1-0.5,0-1-0.4-1.5c-0.4-0.5-0.8-0.7-1.4-0.7H437c-0.3,0-0.7,0.1-1,0.4
					c-0.4,0.3-0.6,0.7-0.7,1.1l-2.6,11.7h25.2c0.9,0,1.6-0.4,1.9-1.3L462.3,259.2z"/>
				<path id="XMLID_60_" class="st1" d="M483.5,253.2c2.5-6.8,6.8-10.2,13.2-10.2h42.2l-3.4,14.1h-24.6H499c-0.3,0-0.7,0.1-1,0.4
					c-0.4,0.3-0.7,0.6-0.8,1.1l-2,8.1H520l-3.2,14.1h-24.9l-1.8,7.5c-0.1,0.6,0,1.1,0.4,1.5c0.3,0.4,0.8,0.6,1.4,0.6l35.6,0
					c-1,4.3-2.1,9-3.4,14h-36.1c-4.3,0-7.8-1.6-10.4-4.8c-2.6-3.2-3.5-6.8-2.6-11L483.5,253.2z"/>
				<path id="XMLID_62_" class="st1" d="M557.8,257.1c-0.4,0-0.8,0.1-1.1,0.4c-0.3,0.3-0.5,0.6-0.6,0.9c-0.3,1.1-0.5,2-0.7,2.7
					c-0.2,0.7-0.3,1.4-0.5,2s-0.3,1.1-0.3,1.3c-0.1,0.6,0,1.1,0.4,1.5c0.3,0.4,0.8,0.6,1.3,0.6c0.2,0,1.3,0,3.3,0c2,0,4.4,0,7.2,0
					s5.3,0,7.6,0s3.7,0,4.2,0c4.1,0,7.4,1.6,9.8,4.8c2.5,3.2,3.2,6.9,2.3,11c0,0,0,0.1,0,0.1c0,0.1-0.1,0.6-0.4,1.7
					c-0.3,1-0.6,2.3-0.9,3.7c-0.4,1.4-0.7,2.7-1,4c-0.3,1.2-0.5,2-0.5,2.4c-0.8,3-2.4,5.5-4.8,7.4c-2.4,1.9-5.1,2.8-8.3,2.8
					c0,0-0.1,0-0.1,0c-0.4,0-2.7,0-6.8,0c-4.1,0-8.9,0-14.4,0c-5.5,0-10.5,0-15,0s-7.2,0-8,0c0.6-2.6,1.1-4.8,1.5-6.5
					c0.4-1.7,0.8-3.4,1.2-4.8c0.3-1.5,0.6-2.4,0.7-2.9c0.4,0,2.3,0,5.9,0c3.6,0,7.8,0,12.7,0s9.3,0,13.3,0c4,0,6.3,0,7.1,0
					c0.8,0,1.4-0.4,1.8-1.3c0.3-1.1,0.5-2,0.7-2.7s0.3-1.4,0.5-2c0.2-0.6,0.3-1.1,0.3-1.3c0.2-0.5,0.2-1-0.2-1.5s-0.8-0.7-1.3-0.7h0
					c0,0-0.1,0-0.1,0c-0.2,0-1.3,0-3.4,0c-2,0-4.5,0-7.2,0c-2.8,0-5.3,0-7.6,0s-3.7,0-4.1,0c-4.1,0-7.4-1.6-9.9-4.7
					c-2.5-3.1-3.2-6.8-2.3-11.1c0,0,0-0.1,0-0.1l0.1-0.4c0.2-0.7,0.5-1.9,0.9-3.5c0.4-1.6,0.8-3.2,1.2-4.8c0.4-1.6,0.6-2.6,0.8-3.1
					c2.6-6.6,6.9-9.9,13-9.9c0,0,0.1,0,0.1,0c0.4,0,2.7,0,6.8,0c4.1,0,8.9,0,14.4,0c5.5,0,10.5,0,15,0c4.5,0,7.2,0,8.1,0
					c-0.6,2.6-1.1,4.7-1.5,6.4c-0.4,1.7-0.8,3.3-1.2,4.8c-0.4,1.5-0.6,2.4-0.7,2.9c-0.4,0-2.4,0-6,0c-3.6,0-7.9,0-12.7,0
					s-9.3,0-13.3,0C560.9,257.1,558.5,257.1,557.8,257.1z"/>
				<path id="XMLID_64_" class="st1" d="M618.7,257.1c-0.4,0-0.8,0.1-1.1,0.4c-0.3,0.3-0.5,0.6-0.6,0.9c-0.3,1.1-0.5,2-0.7,2.7
					c-0.2,0.7-0.3,1.4-0.5,2c-0.2,0.6-0.3,1.1-0.3,1.3c-0.1,0.6,0,1.1,0.4,1.5c0.3,0.4,0.8,0.6,1.3,0.6c0.2,0,1.3,0,3.3,0
					c2,0,4.4,0,7.2,0s5.3,0,7.6,0s3.7,0,4.2,0c4.1,0,7.4,1.6,9.8,4.8c2.5,3.2,3.2,6.9,2.3,11c0,0,0,0.1,0,0.1c0,0.1-0.1,0.6-0.4,1.7
					c-0.3,1-0.6,2.3-0.9,3.7c-0.4,1.4-0.7,2.7-1,4c-0.3,1.2-0.5,2-0.5,2.4c-0.8,3-2.4,5.5-4.8,7.4c-2.4,1.9-5.1,2.8-8.3,2.8
					c0,0-0.1,0-0.1,0c-0.4,0-2.7,0-6.8,0c-4.1,0-8.9,0-14.4,0c-5.5,0-10.5,0-15,0c-4.5,0-7.2,0-8,0c0.6-2.6,1.1-4.8,1.5-6.5
					c0.4-1.7,0.8-3.4,1.2-4.8c0.3-1.5,0.6-2.4,0.7-2.9c0.4,0,2.3,0,5.9,0c3.6,0,7.8,0,12.7,0s9.3,0,13.3,0c4,0,6.3,0,7.1,0
					c0.8,0,1.4-0.4,1.8-1.3c0.3-1.1,0.5-2,0.7-2.7s0.3-1.4,0.5-2c0.2-0.6,0.3-1.1,0.3-1.3c0.2-0.5,0.2-1-0.2-1.5
					c-0.3-0.5-0.8-0.7-1.3-0.7h0c0,0-0.1,0-0.1,0c-0.2,0-1.3,0-3.4,0s-4.5,0-7.2,0c-2.8,0-5.3,0-7.6,0c-2.3,0-3.7,0-4.1,0
					c-4.1,0-7.4-1.6-9.9-4.7c-2.5-3.1-3.2-6.8-2.3-11.1c0,0,0-0.1,0-0.1l0.1-0.4c0.2-0.7,0.5-1.9,0.9-3.5c0.4-1.6,0.8-3.2,1.2-4.8
					c0.4-1.6,0.6-2.6,0.8-3.1c2.6-6.6,6.9-9.9,13-9.9c0,0,0.1,0,0.1,0c0.4,0,2.7,0,6.8,0c4.1,0,8.9,0,14.4,0c5.5,0,10.5,0,15,0
					c4.5,0,7.2,0,8.1,0c-0.6,2.6-1.1,4.7-1.5,6.4c-0.4,1.7-0.8,3.3-1.2,4.8c-0.4,1.5-0.6,2.4-0.7,2.9c-0.4,0-2.4,0-6,0
					c-3.6,0-7.9,0-12.7,0s-9.3,0-13.3,0S619.4,257.1,618.7,257.1z"/>
			</g>
			<g id="XMLID_20_">
				<path id="XMLID_103_" class="st1" d="M648.4,313.2H356.8c-7,0-12.6,5.7-12.6,12.6c0,7,5.7,12.6,12.6,12.6h291.7
					c7,0,12.6-5.7,12.6-12.6C661.1,318.8,655.4,313.2,648.4,313.2z"/>
				<g id="XMLID_66_">
					<g id="XMLID_303_">
						<path id="XMLID_318_" class="st2" d="M404.2,317.5l-9.4,16.6h4.6l1.8-3.4h9.5l1.9,3.4h5.1l-9.5-16.6H404.2z M403.3,327
							l2.8-5.1l2.7,5.1H403.3z"/>
						<path id="XMLID_315_" class="st2" d="M441.6,328.2c2.7,0,4-1.1,4-3.5V321c0-2.4-1.3-3.5-4-3.5h-13.9v16.6h4.4v-5.9h2.9
							l6.3,5.9h6.6l-7.3-5.9H441.6z M432.2,324.6v-3.5h7.8c1.1,0,1.2,0.2,1.2,0.8v1.9c0,0.6-0.1,0.8-1.2,0.8H432.2z"/>
						<path id="XMLID_312_" class="st2" d="M490.1,328.2c2.7,0,4-1.1,4-3.5V321c0-2.4-1.3-3.5-4-3.5h-13.9v16.6h4.4v-5.9h2.9
							l6.3,5.9h6.6l-7.3-5.9H490.1z M480.6,324.6v-3.5h7.8c1.1,0,1.2,0.2,1.2,0.8v1.9c0,0.6-0.1,0.8-1.2,0.8H480.6z"/>
						<polygon id="XMLID_311_" class="st2" points="511.2,327.2 518.5,327.2 518.5,323.7 511.2,323.7 511.2,321 523.7,321 
							523.7,317.5 506.7,317.5 506.7,334.1 523.8,334.1 523.8,330.3 511.2,330.3 						"/>
						<path id="XMLID_310_" class="st2" d="M551,326.2c0,0.3,0,0.9,0.1,1.6c-0.3-0.3-0.6-0.6-1-0.9l-11.2-9.4h-3.1v16.6h4.1v-8.9
							c0-0.2,0-0.7-0.1-1.4c0.2,0.2,0.4,0.3,0.5,0.5l11.7,9.8h3.1v-16.6H551V326.2z"/>
						<polygon id="XMLID_309_" class="st2" points="564.9,321.2 572.1,321.2 572.1,334.1 576.6,334.1 576.6,321.2 583.9,321.2 
							583.9,317.5 564.9,317.5 						"/>
						<path id="XMLID_306_" class="st2" d="M597.5,317.5l-9.4,16.6h4.6l1.8-3.4h9.5l1.9,3.4h5.1l-9.5-16.6H597.5z M596.6,327
							l2.8-5.1l2.7,5.1H596.6z"/>
						<polygon id="XMLID_305_" class="st2" points="625.6,330.3 625.6,317.5 621.1,317.5 621.1,334.1 637.4,334.1 637.4,330.3 
													"/>
						<path id="XMLID_304_" class="st2" d="M381.5,317.5h-9.4c-3.3,0-4.3,1-4.3,4.1v8.3c0,3.1,1.1,4.1,4.3,4.1h9.4
							c3.3,0,4.3-1,4.3-4.1v-2.2h-4.5v2.5h-9v-9.1h9v2.3h4.5v-1.9C385.9,318.5,384.8,317.5,381.5,317.5z"/>
					</g>
				</g>
			</g>
		</g>
		<g id="XMLID_16_">
			<polygon id="XMLID_35_" class="st1" points="343,228.5 209.9,366.8 215.3,366.8 348.3,228.5 			"/>
			<path id="XMLID_70_" class="st1" d="M334.7,348.1L298,299.8l81.8-85.2h-8.2L239.1,353h7.9l21.3-22.2c5.9-6.1,15.8-5.5,20.9,1.2
				l15.9,20.9h15.1h18.2h325.3v-4.9H334.7z"/>
			<path id="XMLID_71_" class="st2" d="M312,242.4l-21.3,22.2c-5.9,6.1-15.8,5.5-20.9-1.2L254,242.4h-33.3l40.3,53.1l-81.8,85.1h8.2
				l132.5-138.3H312z"/>
		</g>
	</g>
	<g id="XMLID_1_">
		<path id="XMLID_3_" d="M360.4,364.6v1.1c0,1.5-0.6,2.1-2.4,2.4c1.8,0.2,2.7,1,2.7,2.5v1.3c0,2-0.7,2.7-3.1,2.7h-8.1
			c-2.4,0-3.1-0.8-3.1-2.7v-1.3c0-1.5,0.9-2.3,2.7-2.5c-1.8-0.3-2.4-1-2.4-2.4v-1.1c0-2,0.7-2.5,2.9-2.5h7.9
			C359.6,362.1,360.4,362.6,360.4,364.6z M350.3,369.2c-1,0-1.2,0.2-1.2,1.1v0.9c0,0.9,0.2,1.1,1.2,1.1h6.4c1,0,1.2-0.2,1.2-1.1
			v-0.9c0-0.9-0.2-1.1-1.2-1.1H350.3z M350.6,364.3c-1,0-1.2,0.2-1.2,1.1v0.6c0,0.9,0.2,1.1,1.2,1.1h5.9c1,0,1.2-0.2,1.2-1.1v-0.6
			c0-0.9-0.2-1.1-1.2-1.1H350.6z"/>
		<path id="XMLID_8_" d="M369.3,362.1h6.5c2.1,0,2.9,0.5,2.9,2.5v0.8c0,1.5-0.4,1.8-1.6,2.6l-7.4,4.5h7.3v-1.9l2.3,0.7v1
			c0,2-0.7,2.5-2.9,2.5h-10.6v-1.1c0-0.9,0.1-1.4,1.6-2.3l8.7-5.4v-1.6h-7.2v2.6l-2.5-0.6v-1.6C366.4,362.6,367.2,362.1,369.3,362.1
			z"/>
		<path id="XMLID_10_" d="M387.1,362.1h8.5c2.2,0,2.9,0.7,2.9,3v6.6c0,2.3-0.7,3-2.9,3h-8.5c-2.2,0-2.9-0.7-2.9-3v-6.6
			C384.2,362.8,384.9,362.1,387.1,362.1z M395.8,372.4v-8.2h-9v8.2H395.8z"/>
		<path id="XMLID_13_" d="M402,366.9h5.7v2.5H402V366.9z"/>
		<path id="XMLID_15_" d="M420,366.7c3.9,0,5.3,0.7,5.3,3.2v1.7c0,2.1-1.4,3.1-4.3,3.1h-5.3c-3.1,0-4.2-0.9-4.2-3.9v-1.7
			c0-4.7,3.4-7.4,9.3-7.4c0.3,0,0.6,0,0.9,0l1.7,2c-0.1,0-0.4,0-0.8,0c-4.7,0-7.3,0.6-8.2,3.2C416.2,366.8,418.1,366.7,420,366.7z
			 M414.2,369.8c0,2.2,0.2,2.7,2.6,2.7h3.5c1.8,0,2.3-0.4,2.3-1.5v-0.7c0-1.2-0.7-1.5-2.8-1.5c-1.8,0-3.7,0.1-5.6,0.3
			C414.2,369.3,414.2,369.6,414.2,369.8z"/>
		<path id="XMLID_23_" d="M431.6,362.1h10.9l-0.2,2.1h-8.8l-0.3,2.4c1.9-0.2,3.6-0.3,5.1-0.3c4.2,0,6.3,1.4,6.3,4.3
			c0,3.1-2.2,4.2-6.9,4.2c-2.7,0-4.7-0.2-6.1-0.5l-0.6-2.4c2.3,0.4,4.5,0.7,6.6,0.7c3,0,4.3-0.5,4.3-2.1c0-1.5-1.3-2-4.1-2
			c-1.7,0-4,0.1-6.8,0.5L431.6,362.1z"/>
		<path id="XMLID_25_" d="M451.8,362.1h8.5c2.2,0,2.9,0.7,2.9,3v6.6c0,2.3-0.7,3-2.9,3h-8.5c-2.2,0-2.9-0.7-2.9-3v-6.6
			C448.9,362.8,449.6,362.1,451.8,362.1z M460.6,372.4v-8.2h-9v8.2H460.6z"/>
		<path id="XMLID_28_" d="M479.1,364.3h-8.3v2.7l-2.7-0.5v-4.4h14v2l-6.6,10.8h-3.2L479.1,364.3z"/>
		<path id="XMLID_30_" d="M496,371.7v-0.8c0-1.3,0.5-1.7,1.6-2.3l2.6-1.5c-0.7-0.6-1.1-1.2-1.1-1.9v-0.7c0-1.8,1-2.3,3.1-2.3h2.5
			c2.3,0,3.1,0.5,3.1,2.5v0.8l-2.3,0.4v-1.7h-4.1v0.9l5.9,4.9l2.9-2.4l1.7,1.4l-2.9,2.4l4,3.3h-3.8l-2.1-1.8l-1.1,1
			c-0.8,0.7-1.3,0.8-2.4,0.8h-4.5C496.8,374.7,496,374.1,496,371.7z M504.3,372.5l1.2-1l-3.8-3.2l-3.2,2v2.2H504.3z"/>
		<path id="XMLID_34_" d="M539.7,364.6v1.1c0,1.5-0.6,2.1-2.4,2.4c1.8,0.2,2.7,1,2.7,2.5v1.3c0,2-0.7,2.7-3.1,2.7h-8.1
			c-2.4,0-3.1-0.8-3.1-2.7v-1.3c0-1.5,0.9-2.3,2.7-2.5c-1.8-0.3-2.4-1-2.4-2.4v-1.1c0-2,0.7-2.5,2.9-2.5h7.9
			C538.9,362.1,539.7,362.6,539.7,364.6z M529.6,369.2c-1,0-1.2,0.2-1.2,1.1v0.9c0,0.9,0.2,1.1,1.2,1.1h6.4c1,0,1.2-0.2,1.2-1.1
			v-0.9c0-0.9-0.2-1.1-1.2-1.1H529.6z M529.9,364.3c-1,0-1.2,0.2-1.2,1.1v0.6c0,0.9,0.2,1.1,1.2,1.1h5.9c1,0,1.2-0.2,1.2-1.1v-0.6
			c0-0.9-0.2-1.1-1.2-1.1H529.9z"/>
		<path id="XMLID_39_" d="M548.6,362.1h6.5c2.2,0,2.9,0.5,2.9,2.5v0.8c0,1.5-0.4,1.8-1.6,2.6l-7.4,4.5h7.3v-1.9l2.3,0.7v1
			c0,2-0.7,2.5-2.9,2.5h-10.6v-1.1c0-0.9,0.1-1.4,1.6-2.3l8.7-5.4v-1.6h-7.2v2.6l-2.5-0.6v-1.6C545.7,362.6,546.5,362.1,548.6,362.1
			z"/>
		<path id="XMLID_44_" d="M574.8,364.3h-8.3v2.7l-2.7-0.5v-4.4h14v2l-6.6,10.8H568L574.8,364.3z"/>
		<path id="XMLID_46_" d="M581.3,366.9h5.7v2.5h-5.7V366.9z"/>
		<path id="XMLID_48_" d="M599.3,366.7c3.9,0,5.3,0.7,5.3,3.2v1.7c0,2.1-1.4,3.1-4.3,3.1H595c-3.1,0-4.2-0.9-4.2-3.9v-1.7
			c0-4.7,3.4-7.4,9.3-7.4c0.3,0,0.6,0,0.9,0l1.7,2c-0.1,0-0.4,0-0.8,0c-4.7,0-7.3,0.6-8.2,3.2C595.5,366.8,597.4,366.7,599.3,366.7z
			 M593.5,369.8c0,2.2,0.2,2.7,2.6,2.7h3.5c1.8,0,2.3-0.4,2.3-1.5v-0.7c0-1.2-0.7-1.5-2.8-1.5c-1.8,0-3.7,0.1-5.6,0.3
			C593.5,369.3,593.5,369.6,593.5,369.8z"/>
		<path id="XMLID_51_" d="M610.9,362.1h10.9l-0.2,2.1h-8.8l-0.3,2.4c1.9-0.2,3.6-0.3,5.1-0.3c4.2,0,6.3,1.4,6.3,4.3
			c0,3.1-2.2,4.2-6.9,4.2c-2.7,0-4.7-0.2-6.1-0.5l-0.6-2.4c2.3,0.4,4.5,0.7,6.6,0.7c3,0,4.3-0.5,4.3-2.1c0-1.5-1.3-2-4.1-2
			c-1.7,0-4,0.1-6.8,0.5L610.9,362.1z"/>
		<path id="XMLID_53_" d="M631.1,362.1h8.5c2.2,0,2.9,0.7,2.9,3v6.6c0,2.3-0.7,3-2.9,3h-8.5c-2.2,0-2.9-0.7-2.9-3v-6.6
			C628.2,362.8,628.9,362.1,631.1,362.1z M639.9,372.4v-8.2h-9v8.2H639.9z"/>
		<path id="XMLID_56_" d="M658.4,364.3H650v2.7l-2.7-0.5v-4.4h14v2l-6.6,10.8h-3.2L658.4,364.3z"/>
	</g>
</g>
</svg>
